<mxfile host="app.diagrams.net" modified="2024-04-18T06:34:37.481Z" agent="Mozilla/5.0 (Windows NT 10.0; Win64; x64) AppleWebKit/537.36 (KHTML, like Gecko) Chrome/124.0.0.0 Safari/537.36" version="24.0.2" etag="P46Y_QWK_5itoml3qxJ_" type="github">
  <diagram name="Страница — 1" id="EzkItHPikd3yh3-xdgSb">
    <mxGraphModel>
      <root>
        <mxCell id="0" />
        <mxCell id="1" parent="0" />
      </root>
    </mxGraphModel>
  </diagram>
</mxfile>
